<?xml version="1.0" encoding="UTF-8" standalone="no"?>
<!-- Created with Inkscape (http://www.inkscape.org/) -->

<svg
   xmlns:dc="http://purl.org/dc/elements/1.1/"
   xmlns:cc="http://creativecommons.org/ns#"
   xmlns:rdf="http://www.w3.org/1999/02/22-rdf-syntax-ns#"
   xmlns:svg="http://www.w3.org/2000/svg"
   xmlns="http://www.w3.org/2000/svg"
   xmlns:sodipodi="http://sodipodi.sourceforge.net/DTD/sodipodi-0.dtd"
   xmlns:inkscape="http://www.inkscape.org/namespaces/inkscape"
   width="214.08121mm"
   height="214.08121mm"
   viewBox="0 0 214.08121 214.08121"
   version="1.1"
   id="svg19854"
   xml:space="preserve"
   inkscape:version="0.92.5 (2060ec1f9f, 2020-04-08)"
   sodipodi:docname="Icon_planet.svg"><metadata
     id="metadata12"><rdf:RDF><cc:Work
         rdf:about=""><dc:format>image/svg+xml</dc:format><dc:type
           rdf:resource="http://purl.org/dc/dcmitype/StillImage" /></cc:Work></rdf:RDF></metadata><sodipodi:namedview
     id="namedview19856"
     pagecolor="#ffffff"
     bordercolor="#000000"
     borderopacity="0.25"
     inkscape:showpageshadow="2"
     inkscape:pageopacity="0.0"
     inkscape:pagecheckerboard="0"
     inkscape:deskcolor="#d1d1d1"
     inkscape:document-units="mm"
     showgrid="false"
     inkscape:zoom="0.7885053"
     inkscape:cx="166.77123"
     inkscape:cy="357.63869"
     inkscape:window-width="1848"
     inkscape:window-height="1016"
     inkscape:window-x="72"
     inkscape:window-y="27"
     inkscape:window-maximized="1"
     inkscape:current-layer="layer1" /><defs
     id="defs19851" /><g
     inkscape:label="Calque 1"
     inkscape:groupmode="layer"
     id="layer1"
     transform="translate(2.0406036,-41.459396)"><rect
       style="fill:#192c53;fill-opacity:1;stroke-width:1.2;stroke-linecap:round;stroke-linejoin:round;opacity:0"
       id="rect20027"
       width="214.08121"
       height="214.08121"
       x="-2.0406036"
       y="41.459396"
       ry="107.0406" /><path
       inkscape:connector-curvature="0"
       style="fill:#ffffff;fill-opacity:1;stroke-width:5.64462852"
       id="path27896"
       d="m 156.18735,148.75506 c 0,28.14187 -22.81334,50.95522 -50.95466,50.95522 -3.09156,0 -6.118776,-0.27546 -9.059065,-0.80267 -9.190024,-8.86658 -19.317622,-13.4901 -29.65537,-17.02026 -7.631147,-8.90891 -12.240779,-20.4821 -12.240779,-33.13229 0,-1.32253 0.05041,-2.63322 0.149358,-3.93093 9.131602,-16.96324 28.480214,-38.91074 46.147906,-46.813797 1.53422,-0.139026 3.08762,-0.210044 4.65795,-0.210044 11.72277,0 22.52039,3.958641 31.13014,10.612081 3.59508,8.96983 11.91356,24.32266 18.99137,31.11485 0.54752,2.99278 0.83315,6.07701 0.83315,9.22784 z" /><path
       inkscape:connector-curvature="0"
       style="fill:#ffffff;fill-opacity:1;stroke-width:5.64462852"
       id="path27898"
       d="M 82.255657,125.63521 C 72.094756,136.47968 60.961454,142.33542 54.432534,144.74681 56.356,120.03066 75.913914,100.26344 100.53693,98.013891 99.113349,102.91377 95.225328,111.793 82.255657,125.63521 Z" /><path
       inkscape:connector-curvature="0"
       style="fill:#add0ff;fill-opacity:1;stroke-width:5.64462852;opacity:0"
       id="path27900"
       d="m 131.01342,172.97279 c 10.75076,-12.10944 18.50705,-23.46361 24.28715,-33.73063 -2.35945,-12.49552 -9.28089,-23.37837 -18.96765,-30.85265 -3.59619,8.70086 -13.28238,24.07119 -31.1132,42.25651 -14.095218,14.37518 -27.080692,24.25441 -38.773095,31.15779 7.519326,8.81579 17.990683,15.03674 29.88505,17.13203 13.294235,-7.40633 26.050535,-16.24131 34.681745,-25.96305 z" /><path
       inkscape:connector-curvature="0"
       style="fill:#b3b3b3;fill-opacity:1;stroke-width:5.64462852"
       id="path27902"
       d="m 168.47458,85.955882 c -2.55476,-2.97393 -5.98783,-3.967724 -8.9394,-4.052337 -2.80144,-0.08032 -5.59158,0.615659 -8.04417,1.490408 -4.93961,1.762085 -10.49619,4.98833 -15.86988,8.592766 -4.08897,2.742448 -8.31171,5.868382 -12.40351,9.078481 5.04235,1.90247 9.70312,4.5817 13.83782,7.89165 2.27026,-1.68921 4.53433,-3.30216 6.74025,-4.78185 5.07113,-3.40105 9.42314,-5.815496 12.62591,-6.958138 0.1304,-0.04642 0.25514,-0.08953 0.37537,-0.129593 -0.15523,0.615543 -0.39852,1.393651 -0.77557,2.364079 -1.57994,4.066172 -4.74545,9.378272 -9.2143,15.550512 -8.86207,12.23925 -21.73127,26.35196 -33.3547,38.11311 -11.2678,11.40103 -26.608221,24.99895 -40.056556,34.82117 -6.765768,4.94188 -12.758165,8.7091 -17.351767,10.81342 -0.979287,0.44875 -1.826885,0.78968 -2.548608,1.04313 0.70558,-1.91917 2.041437,-4.47789 4.086995,-7.71564 2.216366,-3.50815 4.947408,-7.33069 7.915467,-11.41909 -3.354152,-4.17252 -6.064705,-8.88409 -7.980887,-13.98458 -0.813957,1.12554 -1.639202,2.26011 -2.469809,3.40145 l -0.40201,0.55261 c -3.305892,4.54394 -6.701815,9.22954 -9.469998,13.6109 -2.693167,4.26283 -5.216713,8.88014 -6.317472,13.26546 -1.134797,4.52134 -1.097938,10.67117 4.159979,14.98085 3.328922,2.72861 7.327862,2.8415 10.175296,2.45485 2.954287,-0.40077 6.029821,-1.50318 8.963392,-2.84716 5.921163,-2.7128 12.841369,-7.15231 19.895464,-12.30473 14.192297,-10.36524 30.123134,-24.50222 41.838574,-36.35651 11.81308,-11.95251 25.29134,-26.68443 34.80423,-39.82287 4.71835,-6.51673 8.74693,-13.02657 11.00647,-18.84104 2.00441,-5.158638 3.82706,-12.92915 -1.22658,-18.811308 z M 52.913,202.08215 c 0.0051,0.0412 0.0044,0.0649 0.0027,0.0666 -0.0017,0.001 -0.0042,-0.0192 -0.0027,-0.0666 z" /></g></svg>